<svg width="150" height="98" viewBox="0 0 150 98" fill="none" xmlns="http://www.w3.org/2000/svg">
<path d="M0 0H150V98H0V0Z" fill="#F55F39"/>
<g clip-path="url(#clip0_1_6)">
<path d="M120 0H30V98H120V0Z" fill="#F56039"/>
<path d="M75 15C69.6599 15 64.4397 16.4369 59.9996 19.129C55.5595 21.8211 52.0988 25.6475 50.0553 30.1243C48.0117 34.601 47.477 39.5272 48.5188 44.2797C49.5606 49.0322 52.1321 53.3977 55.9081 56.8241C59.6841 60.2505 64.4951 62.5839 69.7326 63.5292C74.9701 64.4746 80.3988 63.9894 85.3325 62.135C90.2661 60.2807 94.4829 57.1405 97.4497 53.1115C100.416 49.0825 102 44.3456 102 39.5C101.992 33.0045 99.1446 26.7771 94.0829 22.1841C89.0211 17.591 82.1583 15.0074 75 15ZM93.4526 26.7096L87.3922 36.1288L76.1479 18.4496C79.5204 18.6029 82.8157 19.4212 85.8042 20.8477C88.7927 22.2742 91.4027 24.2746 93.4526 26.7096ZM69.9765 47.48L64.8388 39.4804L69.9209 31.52H80.1038L85.2168 39.5504L80.1038 47.48H69.9765ZM71.8803 18.6092L77.8975 28.0788H55.4983C57.3145 25.5209 59.7194 23.35 62.5477 21.7154C65.3761 20.0808 68.561 19.0211 71.8834 18.6092H71.8803ZM53.5111 31.4892H65.5454L54.3257 49.1012C52.6347 46.1266 51.7543 42.8274 51.7584 39.4804C51.7721 36.7493 52.3673 34.0463 53.5111 31.52V31.4892ZM56.6308 52.3604L62.6572 42.8992L67.0203 49.72C67.1054 49.9712 67.2532 50.2012 67.4524 50.392L73.9879 60.57C70.6135 60.4333 67.3126 59.6307 64.3149 58.2182C61.3173 56.8057 58.695 54.8172 56.6308 52.3912V52.3604ZM78.2307 60.3516L72.1611 50.9212H94.511C92.6985 53.4572 90.3086 55.6116 87.5021 57.2397C84.6956 58.8677 81.5374 59.9317 78.24 60.36L78.2307 60.3516ZM96.4797 47.4716H84.4454L95.6959 29.9716C97.1996 32.6679 98.0467 35.626 98.1798 38.6454C98.3129 41.6649 97.7288 44.675 96.4673 47.4716H96.4797Z" fill="white"/>
<path d="M47.1789 83.7423L45.9495 80.8052V83.7423H43.9128V75.5554H46.9404C47.4056 75.5387 47.8674 75.6595 48.289 75.9081C48.6382 76.1159 48.9304 76.45 49.1284 76.8678C49.3182 77.2844 49.4149 77.7579 49.4083 78.2381C49.4137 78.7565 49.2867 79.2633 49.0459 79.6835C48.7877 80.1238 48.4218 80.4448 48.0046 80.597L49.4174 83.7307L47.1789 83.7423ZM45.9495 79.0938H46.7569C46.9173 79.1099 47.0766 79.0479 47.2018 78.9203C47.2548 78.8511 47.2953 78.7682 47.3207 78.6774C47.346 78.5866 47.3555 78.49 47.3486 78.3942C47.3525 78.3008 47.3411 78.2075 47.3151 78.1199C47.289 78.0324 47.2489 77.9525 47.1972 77.8854C47.0769 77.7539 46.9204 77.6875 46.7615 77.7004H45.9495V79.0938Z" fill="white"/>
<path d="M54.1147 77.5906V78.6081H56.133V80.5392H54.1147V81.6956H56.4083V83.7423H52.078V75.5554H56.4083V77.579L54.1147 77.5906Z" fill="white"/>
<path d="M63.9266 82.5975C63.7201 82.9907 63.4289 83.3016 63.0871 83.4937C62.6747 83.7252 62.2265 83.8378 61.7752 83.8232C61.0927 83.8586 60.4191 83.6175 59.8532 83.1352C59.6007 82.9019 59.395 82.5974 59.2524 82.246C59.1098 81.8947 59.0344 81.5062 59.0321 81.1116H61.1926C61.2225 81.5828 61.3899 81.817 61.6881 81.817C61.7794 81.8221 61.8691 81.7851 61.9403 81.7129C61.9721 81.6764 61.9972 81.6317 62.0138 81.5818C62.0304 81.5318 62.0382 81.4779 62.0367 81.4238C62.0361 81.3283 62.0143 81.2349 61.9738 81.1542C61.9332 81.0734 61.8756 81.0086 61.8073 80.9671C61.5642 80.8112 61.311 80.6816 61.0504 80.5797C60.6987 80.4419 60.3566 80.2678 60.0275 80.0593C59.7447 79.8714 59.5011 79.602 59.3165 79.273C59.1146 78.8654 59.0095 78.3935 59.0136 77.913C59.0177 77.4325 59.1307 76.9635 59.3394 76.5614C59.5671 76.1787 59.8754 75.8842 60.2293 75.7115C60.6342 75.5131 61.0656 75.415 61.5 75.4224C62.1612 75.3784 62.8147 75.619 63.3532 76.1047C63.585 76.3431 63.7725 76.6426 63.9025 76.9823C64.0325 77.3219 64.1018 77.6934 64.1055 78.0704H61.9128C61.883 77.6397 61.7431 77.4229 61.4908 77.4229C61.4131 77.4203 61.3375 77.4555 61.2798 77.5212C61.2512 77.5598 61.2292 77.6054 61.215 77.655C61.2008 77.7047 61.1948 77.7575 61.1972 77.8103C61.1994 77.9024 61.222 77.9919 61.2625 78.0686C61.3031 78.1452 61.3599 78.206 61.4266 78.2439C61.6604 78.3993 61.9044 78.5289 62.1559 78.6313C62.5096 78.7842 62.8544 78.9678 63.1881 79.1805C63.4716 79.3744 63.7164 79.6473 63.9037 79.9784C64.1185 80.374 64.2263 80.8465 64.211 81.3255C64.2172 81.7755 64.1183 82.2178 63.9266 82.5975Z" fill="white"/>
<path d="M71.7936 75.9543C72.2959 76.3066 72.7128 76.8242 73 77.4518C73.2935 78.1146 73.4475 78.8609 73.4475 79.6199C73.4475 80.3789 73.2935 81.1253 73 81.7881C72.7125 82.4189 72.2938 82.9387 71.789 83.2913C71.2746 83.6479 70.6971 83.8348 70.1101 83.8348C69.5231 83.8348 68.9456 83.6479 68.4312 83.2913C67.926 82.9373 67.5061 82.4179 67.2156 81.7881C66.9191 81.1266 66.7634 80.3797 66.7634 79.6199C66.7634 78.8602 66.9191 78.1133 67.2156 77.4518C67.5067 76.8241 67.9266 76.3068 68.4312 75.9543C68.9473 75.6014 69.5252 75.4165 70.1124 75.4165C70.6996 75.4165 71.2775 75.6014 71.7936 75.9543ZM69.1697 78.267C68.9361 78.6478 68.8188 79.1219 68.8395 79.6026C68.8192 80.0797 68.9365 80.5499 69.1697 80.9266C69.2931 81.0825 69.4397 81.2063 69.601 81.2907C69.7624 81.3751 69.9354 81.4185 70.1101 81.4185C70.2848 81.4185 70.4578 81.3751 70.6192 81.2907C70.7805 81.2063 70.9271 81.0825 71.0505 80.9266C71.2837 80.5499 71.401 80.0797 71.3807 79.6026C71.4013 79.1219 71.2841 78.6478 71.0505 78.267C70.9271 78.1111 70.7805 77.9874 70.6192 77.9029C70.4578 77.8185 70.2848 77.7751 70.1101 77.7751C69.9354 77.7751 69.7624 77.8185 69.601 77.9029C69.4397 77.9874 69.2931 78.1111 69.1697 78.267Z" fill="white"/>
<path d="M78.1881 75.5554V80.1808C78.1737 80.4987 78.243 80.8137 78.3853 81.0769C78.463 81.1921 78.5614 81.2821 78.6723 81.3395C78.7833 81.3968 78.9035 81.4198 79.0229 81.4065C79.1443 81.4189 79.2664 81.3955 79.3794 81.3383C79.4924 81.2811 79.5934 81.1917 79.6743 81.0769C79.8246 80.8178 79.8992 80.5012 79.8853 80.1808V75.5554H81.9129V80.1808C81.9295 80.8773 81.7964 81.5665 81.5275 82.1754C81.2825 82.7136 80.915 83.1466 80.4725 83.4185C80.0064 83.7018 79.4944 83.8443 78.9771 83.8348C78.4698 83.8474 77.9676 83.7046 77.5138 83.4185C77.0899 83.1431 76.7427 82.7116 76.5184 82.1812C76.2666 81.5633 76.1435 80.875 76.1606 80.1808V75.5554H78.1881Z" fill="white"/>
<path d="M88.078 83.7423L86.8486 80.8052V83.7423H84.8165V75.5554H87.844C88.3092 75.5396 88.7709 75.6604 89.1927 75.9081C89.5419 76.1159 89.8341 76.45 90.0321 76.8678C90.2209 77.2849 90.3175 77.758 90.3119 78.2381C90.3164 78.7563 90.1895 79.2627 89.9496 79.6835C89.6909 80.1232 89.3252 80.444 88.9083 80.597L90.3211 83.7423H88.078ZM86.8486 79.0938H87.656C87.8142 79.1092 87.9713 79.0494 88.0963 78.9261C88.1493 78.8568 88.1899 78.774 88.2152 78.6832C88.2405 78.5924 88.25 78.4958 88.2431 78.4C88.247 78.3066 88.2356 78.2132 88.2096 78.1257C88.1835 78.0381 88.1434 77.9583 88.0918 77.8912C87.9714 77.7597 87.8149 77.6932 87.656 77.7062H86.8486V79.0938Z" fill="white"/>
<path d="M97.5138 75.8734C97.945 76.1267 98.3177 76.5148 98.5964 77.0008C98.8811 77.5072 99.0709 78.0884 99.1514 78.7006H97.0046C96.9157 78.4449 96.7709 78.2263 96.5872 78.0704C96.4032 77.9191 96.1876 77.8406 95.9679 77.8449C95.8116 77.8376 95.6561 77.8779 95.5148 77.9625C95.3734 78.047 95.2503 78.1733 95.156 78.3306C94.963 78.7209 94.8608 79.1716 94.8608 79.6315C94.8608 80.0914 94.963 80.542 95.156 80.9324C95.2503 81.0897 95.3734 81.216 95.5148 81.3005C95.6561 81.3851 95.8116 81.4254 95.9679 81.418C96.1876 81.4224 96.4032 81.3439 96.5872 81.1925C96.7717 81.0377 96.9167 80.8188 97.0046 80.5623H99.1514C99.0709 81.1746 98.8811 81.7558 98.5964 82.2622C98.3177 82.7482 97.945 83.1363 97.5138 83.3896C97.0408 83.6635 96.525 83.7999 96.0046 83.7885C95.4088 83.8077 94.8197 83.6261 94.2982 83.2624C93.8197 82.9198 93.432 82.407 93.1835 81.7881C92.9255 81.1116 92.7915 80.3706 92.7915 79.6199C92.7915 78.8693 92.9255 78.1283 93.1835 77.4518C93.4333 76.8341 93.8207 76.3217 94.2982 75.9775C94.8201 75.6151 95.4089 75.4336 96.0046 75.4513C96.5264 75.4472 97.0423 75.5915 97.5138 75.8734Z" fill="white"/>
<path d="M103.94 77.5906V78.6081H105.959V80.5392H103.94V81.6956H106.234V83.7423H101.904V75.5554H106.234V77.579L103.94 77.5906Z" fill="white"/>
</g>
<defs>
<clipPath id="clip0_1_6">
<rect width="90" height="98" fill="white" transform="translate(30)"/>
</clipPath>
</defs>
</svg>
